<svg width="91" height="79" viewBox="0 0 91 79" fill="none" xmlns="http://www.w3.org/2000/svg">
<path d="M0.548828 -15.8088L15.1912 -30.4512L109.451 63.8088L94.8088 78.4511L0.548828 -15.8088Z" fill="#FF1B6D"/>
<g clip-path="url(#clip0_2634_2102)">
<path d="M50.4598 12.0636C50.4637 12.0471 50.4633 12.0298 50.4586 12.0134C50.4539 11.997 50.4452 11.9821 50.4331 11.9701C50.4211 11.958 50.4062 11.9493 50.3898 11.9446C50.3734 11.94 50.3561 11.9395 50.3396 11.9434L49.7633 12.0778C49.7378 12.0838 49.7111 12.0796 49.6887 12.0661L49.1827 11.7603C49.1682 11.7515 49.1516 11.7466 49.1347 11.746C49.1177 11.7454 49.1008 11.7491 49.0857 11.7568C49.0705 11.7645 49.0576 11.776 49.0481 11.7901C49.0386 11.8042 49.0329 11.8204 49.0314 11.8374L48.9812 12.4271C48.9789 12.453 48.9666 12.477 48.9469 12.4939L48.4997 12.8811C48.4868 12.8922 48.477 12.9063 48.4712 12.9223C48.4654 12.9382 48.4637 12.9553 48.4663 12.9721C48.4689 12.9889 48.4758 13.0047 48.4862 13.0181C48.4966 13.0315 48.5102 13.042 48.5258 13.0486L49.071 13.2792C49.0949 13.2893 49.1139 13.3083 49.124 13.3322L49.3546 13.8774C49.3612 13.893 49.3717 13.9066 49.3851 13.917C49.3985 13.9275 49.4143 13.9343 49.4311 13.9369C49.4479 13.9395 49.465 13.9378 49.4809 13.932C49.4969 13.9262 49.511 13.9164 49.5221 13.9035L49.9093 13.4563C49.9263 13.4366 49.9502 13.4243 49.9761 13.422L50.5658 13.3718C50.5828 13.3703 50.5991 13.3646 50.6132 13.3551C50.6272 13.3456 50.6387 13.3327 50.6464 13.3175C50.6541 13.3024 50.6578 13.2855 50.6572 13.2686C50.6566 13.2516 50.6517 13.235 50.6429 13.2205L50.3371 12.7145C50.3236 12.6922 50.3194 12.6654 50.3254 12.6399L50.4598 12.0636ZM48.0213 11.907C48.162 11.7664 48.241 11.5756 48.241 11.3767C48.241 11.1778 48.162 10.987 48.0213 10.8464C47.8807 10.7057 47.6899 10.6267 47.491 10.6267C47.2921 10.6267 47.1013 10.7057 46.9607 10.8464C46.2772 11.5298 45.09 11.4506 44.309 10.6696L41.127 13.8516C41.0333 13.9453 40.9806 14.0725 40.9806 14.2051C40.9806 14.3377 41.0333 14.4649 41.127 14.5587L43.7292 17.1608C43.8927 17.3243 44.1077 17.426 44.3378 17.4488C44.5678 17.4715 44.7987 17.4139 44.991 17.2856L47.5366 15.5886C47.6596 15.5065 47.7629 15.3982 47.8391 15.2714C47.9152 15.1446 47.9623 15.0025 47.9769 14.8554C47.9915 14.7082 47.9733 14.5596 47.9236 14.4203C47.8738 14.2811 47.7938 14.1545 47.6893 14.0499L46.4229 12.7835C47.0287 12.6505 47.5835 12.3463 48.0213 11.907ZM43.0716 9.7857C43.1184 9.73882 43.182 9.71248 43.2483 9.71248C43.3146 9.71248 43.3782 9.73882 43.4251 9.7857L43.7787 10.1393C43.8256 10.1861 43.8519 10.2497 43.8519 10.316C43.8519 10.3823 43.8256 10.4459 43.7787 10.4928L40.5967 13.6748C40.5498 13.7217 40.4862 13.748 40.4199 13.748C40.3536 13.748 40.29 13.7217 40.2431 13.6748L39.8896 13.3212C39.8427 13.2744 39.8164 13.2108 39.8164 13.1445C39.8164 13.0782 39.8427 13.0146 39.8896 12.9677L43.0716 9.7857Z" fill="white"/>
</g>
<path d="M58.4399 20.6326L59.1702 21.3629L58.9908 21.5422C57.9338 22.5992 56.1914 22.5864 54.4554 21.2732L54.8077 20.2931C56.3003 21.4654 57.6392 21.4333 58.2605 20.812L58.4399 20.6326ZM58.5809 20.7735L59.3111 21.5038L59.1318 21.6832C58.5104 22.3046 58.4784 23.6434 59.6442 25.1296L58.6705 25.4884C57.3573 23.7523 57.3509 22.0035 58.4015 20.9529L58.5809 20.7735ZM53.5649 21.0105L58.9268 26.3724L58.2541 27.045L52.8923 21.6832L53.5649 21.0105ZM55.1728 24.7453C56.4541 26.0265 56.8384 27.1924 56.153 27.8778C55.4611 28.5696 54.3016 28.1789 53.0204 26.8977C51.7328 25.6101 51.342 24.4506 52.0339 23.7587C52.7193 23.0733 53.8852 23.4576 55.1728 24.7453ZM54.5322 25.3859C53.7379 24.5915 53.1934 24.3289 52.8987 24.6235C52.5976 24.9246 52.8667 25.4627 53.661 26.2571C54.4554 27.0514 54.9935 27.3205 55.2946 27.0194C55.5892 26.7247 55.3266 26.1802 54.5322 25.3859ZM66.2484 28.2617L67.1068 29.1201L62.8468 33.3801L61.9884 32.5217L66.2484 28.2617ZM58.0102 30.3116L62.1101 34.4114L61.431 35.0905L57.3312 30.9906L58.0102 30.3116ZM59.3234 28.9984L60.1754 29.8504L58.5868 31.439L57.7348 30.587L59.3234 28.9984ZM63.5066 26.263C64.4162 27.1726 64.4867 28.4987 63.6091 29.3763C62.7379 30.2475 61.4054 30.1835 60.4957 29.2738C59.5861 28.3642 59.5156 27.0253 60.3868 26.1541C61.2645 25.2765 62.5969 25.3533 63.5066 26.263ZM62.7699 26.9997C62.3279 26.5577 61.7065 26.5 61.2196 26.9869C60.7392 27.4673 60.7968 28.0887 61.2388 28.5307C61.6745 28.9663 62.2958 29.024 62.7763 28.5435C63.2631 28.0567 63.2055 27.4353 62.7699 26.9997ZM68.612 35.417L69.464 36.269L68.5671 37.1658L67.7151 36.3138L68.612 35.417ZM71.1936 33.6681C72.052 34.5265 72.1801 35.6412 71.4627 36.3587C70.758 37.0633 69.6433 36.9352 68.7849 36.0768C67.9265 35.2184 67.7984 34.1037 68.5031 33.3991C69.2205 32.6816 70.3352 32.8097 71.1936 33.6681ZM70.553 34.3087C70.1494 33.9052 69.6626 33.8283 69.2974 34.1934C68.9387 34.5522 69.0156 35.039 69.4191 35.4426C69.8291 35.8526 70.3096 35.9231 70.6683 35.5643C71.0334 35.1992 70.963 34.7187 70.553 34.3087ZM73.5126 35.5259L74.3646 36.3779L69.8419 40.9005L68.9899 40.0485L73.5126 35.5259ZM72.2058 37.9345L73.2499 38.9787L72.5517 39.677L71.5075 38.6328L72.2058 37.9345ZM65.268 37.5566L69.4255 41.7141L68.7401 42.3995L64.5826 38.242L65.268 37.5566ZM66.2738 36.5508L67.1322 37.4093L65.8318 38.7097L64.9734 37.8513L66.2738 36.5508ZM65.9791 35.5003L66.562 34.7251C67.5678 35.7309 68.9643 37.1146 70.2968 38.1139L69.7458 38.7801C68.3237 37.8064 66.9592 36.4804 65.9791 35.5003ZM73.4608 42.3798L74.2936 43.2126L72.8971 44.6091L72.0643 43.7763L73.4608 42.3798ZM75.3442 44.2504L76.177 45.0832L74.7741 46.4861L73.9413 45.6533L75.3442 44.2504ZM70.9753 42.1492L76.3435 47.5174L75.6517 48.2093L70.2834 42.8411L70.9753 42.1492ZM75.7798 38.549L79.9437 42.7129L77.9771 44.6796L74.6716 41.3741L73.6658 42.3798L72.8202 41.5342L74.4922 39.8623L77.7977 43.1678L78.4255 42.54L75.1072 39.2217L75.7798 38.549ZM73.179 41.1755L77.4646 45.4611L76.7791 46.1466L72.4935 41.8609L73.179 41.1755Z" fill="#F5F5F5"/>
<defs>
<clipPath id="clip0_2634_2102">
<rect width="12" height="12" fill="white" transform="translate(45.3691 4.65918) rotate(45)"/>
</clipPath>
</defs>
</svg>
