<svg width="91" height="79" viewBox="0 0 91 79" fill="none" xmlns="http://www.w3.org/2000/svg">
<path d="M0.548828 -15.8088L15.1912 -30.4512L109.451 63.8088L94.8088 78.4511L0.548828 -15.8088Z" fill="#7E95AA"/>
<g clip-path="url(#clip0_2505_2682)">
<path d="M50.4598 12.0636C50.4637 12.0471 50.4633 12.0298 50.4586 12.0134C50.4539 11.997 50.4452 11.9821 50.4331 11.9701C50.4211 11.958 50.4062 11.9493 50.3898 11.9446C50.3734 11.94 50.3561 11.9395 50.3396 11.9434L49.7633 12.0778C49.7378 12.0838 49.7111 12.0796 49.6887 12.0661L49.1827 11.7603C49.1682 11.7515 49.1516 11.7466 49.1347 11.746C49.1177 11.7454 49.1008 11.7491 49.0857 11.7568C49.0705 11.7645 49.0576 11.776 49.0481 11.7901C49.0386 11.8042 49.0329 11.8204 49.0314 11.8374L48.9812 12.4271C48.9789 12.453 48.9666 12.477 48.9469 12.4939L48.4997 12.8811C48.4868 12.8922 48.477 12.9063 48.4712 12.9223C48.4654 12.9382 48.4637 12.9553 48.4663 12.9721C48.4689 12.9889 48.4758 13.0047 48.4862 13.0181C48.4966 13.0315 48.5102 13.042 48.5258 13.0486L49.071 13.2792C49.0949 13.2893 49.1139 13.3083 49.124 13.3322L49.3546 13.8774C49.3612 13.893 49.3717 13.9066 49.3851 13.917C49.3985 13.9275 49.4143 13.9343 49.4311 13.9369C49.4479 13.9395 49.465 13.9378 49.4809 13.932C49.4969 13.9262 49.511 13.9164 49.5221 13.9035L49.9093 13.4563C49.9263 13.4366 49.9502 13.4243 49.9761 13.422L50.5658 13.3718C50.5828 13.3703 50.5991 13.3646 50.6132 13.3551C50.6272 13.3456 50.6387 13.3327 50.6464 13.3175C50.6541 13.3024 50.6578 13.2855 50.6572 13.2686C50.6566 13.2516 50.6517 13.235 50.6429 13.2205L50.3371 12.7145C50.3236 12.6922 50.3194 12.6654 50.3254 12.6399L50.4598 12.0636ZM48.0213 11.907C48.162 11.7664 48.241 11.5756 48.241 11.3767C48.241 11.1778 48.162 10.987 48.0213 10.8464C47.8807 10.7057 47.6899 10.6267 47.491 10.6267C47.2921 10.6267 47.1013 10.7057 46.9607 10.8464C46.2772 11.5298 45.09 11.4506 44.309 10.6696L41.127 13.8516C41.0333 13.9453 40.9806 14.0725 40.9806 14.2051C40.9806 14.3377 41.0333 14.4649 41.127 14.5587L43.7292 17.1608C43.8927 17.3243 44.1077 17.426 44.3378 17.4488C44.5678 17.4715 44.7987 17.4139 44.991 17.2856L47.5366 15.5886C47.6596 15.5065 47.7629 15.3982 47.8391 15.2714C47.9152 15.1446 47.9623 15.0025 47.9769 14.8554C47.9915 14.7082 47.9733 14.5596 47.9236 14.4203C47.8738 14.2811 47.7938 14.1545 47.6893 14.0499L46.4229 12.7835C47.0287 12.6505 47.5835 12.3463 48.0213 11.907ZM43.0716 9.7857C43.1184 9.73882 43.182 9.71248 43.2483 9.71248C43.3146 9.71248 43.3782 9.73882 43.4251 9.7857L43.7787 10.1393C43.8256 10.1861 43.8519 10.2497 43.8519 10.316C43.8519 10.3823 43.8256 10.4459 43.7787 10.4928L40.5967 13.6748C40.5498 13.7217 40.4862 13.748 40.4199 13.748C40.3536 13.748 40.29 13.7217 40.2431 13.6748L39.8896 13.3212C39.8427 13.2744 39.8164 13.2108 39.8164 13.1445C39.8164 13.0782 39.8427 13.0146 39.8896 12.9677L43.0716 9.7857Z" fill="white"/>
</g>
<path d="M60.3617 22.3622L61.2201 23.2206L58.0299 26.4108L57.1715 25.5524L60.3617 22.3622ZM53.8276 22.721L54.6668 23.5601L54.1159 24.1111L56.3772 26.3724L56.9281 25.8215L57.7737 26.6671L55.3522 29.0885L51.4061 25.1424L53.8276 22.721ZM53.4624 24.7645L52.9243 25.3026L55.1857 27.5639L55.7238 27.0258L53.4624 24.7645ZM57.7481 20.2354C58.6705 21.1579 58.773 22.4263 57.9531 23.2462C57.1331 24.0662 55.8647 23.9637 54.9422 23.0413C54.0198 22.1188 53.9109 20.844 54.7308 20.024C55.5508 19.204 56.8256 19.313 57.7481 20.2354ZM57.0434 20.9401C56.5886 20.4853 55.9992 20.4212 55.5636 20.8568C55.1216 21.2988 55.1921 21.8818 55.6469 22.3366C56.0953 22.785 56.6783 22.8555 57.1203 22.4135C57.5559 21.9779 57.4918 21.3885 57.0434 20.9401ZM62.5969 26.4295L63.2824 27.115L63.071 27.3264C62.1357 28.2617 60.784 28.5115 59.3683 27.6211L59.6566 26.6025C60.8289 27.352 61.8154 27.2111 62.3855 26.6409L62.5969 26.4295ZM62.7635 26.5961L63.4489 27.2815L63.2375 27.4929C62.7122 28.0182 62.6097 28.9663 63.3528 30.1066L62.3471 30.3949C61.4502 29.0112 61.6681 27.6915 62.5521 26.8075L62.7635 26.5961ZM61.841 24.8537L65.0248 28.0374L64.3522 28.7101L61.1684 25.5263L61.841 24.8537ZM63.5322 25.4943L64.3842 26.3463L63.5002 27.2303L62.6482 26.3783L63.5322 25.4943ZM65.9985 27.999L66.8505 28.851L63.7756 31.9259L62.9236 31.0739L65.9985 27.999ZM65.3195 29.6902L66.4469 30.8177L65.7551 31.5095L64.6276 30.382L65.3195 29.6902ZM59.6117 28.2488L63.5322 32.1693L61.9499 33.7516L58.8878 30.6895L58.1768 31.4006L57.3312 30.555L58.6444 29.2418L61.7129 32.3103L62.046 31.9771L58.9647 28.8959L59.6117 28.2488ZM57.6963 30.1899L61.777 34.2705L61.1299 34.9175L57.0493 30.8369L57.6963 30.1899ZM68.612 35.417L69.464 36.269L68.5671 37.1658L67.7151 36.3138L68.612 35.417ZM71.1936 33.6681C72.052 34.5265 72.1801 35.6412 71.4627 36.3587C70.758 37.0633 69.6433 36.9352 68.7849 36.0768C67.9265 35.2184 67.7984 34.1037 68.5031 33.3991C69.2205 32.6816 70.3352 32.8097 71.1936 33.6681ZM70.553 34.3087C70.1494 33.9052 69.6626 33.8283 69.2974 34.1934C68.9387 34.5522 69.0156 35.039 69.4191 35.4426C69.8291 35.8526 70.3096 35.9231 70.6683 35.5643C71.0334 35.1992 70.963 34.7187 70.553 34.3087ZM73.5126 35.5259L74.3646 36.3779L69.8419 40.9005L68.9899 40.0485L73.5126 35.5259ZM72.2058 37.9345L73.2499 38.9787L72.5517 39.677L71.5075 38.6328L72.2058 37.9345ZM65.268 37.5566L69.4255 41.7141L68.7401 42.3995L64.5826 38.242L65.268 37.5566ZM66.2738 36.5508L67.1322 37.4093L65.8318 38.7097L64.9734 37.8513L66.2738 36.5508ZM65.9791 35.5003L66.562 34.7251C67.5678 35.7309 68.9643 37.1146 70.2968 38.1139L69.7458 38.7801C68.3237 37.8064 66.9592 36.4804 65.9791 35.5003ZM73.4608 42.3798L74.2936 43.2126L72.8971 44.6091L72.0643 43.7763L73.4608 42.3798ZM75.3442 44.2504L76.177 45.0832L74.7741 46.4861L73.9413 45.6533L75.3442 44.2504ZM70.9753 42.1492L76.3435 47.5174L75.6517 48.2093L70.2834 42.8411L70.9753 42.1492ZM75.7798 38.549L79.9437 42.7129L77.9771 44.6796L74.6716 41.3741L73.6658 42.3798L72.8202 41.5342L74.4922 39.8623L77.7977 43.1678L78.4255 42.54L75.1072 39.2217L75.7798 38.549ZM73.179 41.1755L77.4646 45.4611L76.7791 46.1466L72.4935 41.8609L73.179 41.1755Z" fill="#F5F5F5"/>
<defs>
<clipPath id="clip0_2505_2682">
<rect width="12" height="12" fill="white" transform="translate(45.3691 4.65918) rotate(45)"/>
</clipPath>
</defs>
</svg>
